<svg id="Layer_1" data-name="Layer 1" xmlns="http://www.w3.org/2000/svg" viewBox="0 0 166 166">
  <defs>
    <style>
      .cls-1 {
        fill: #fff;
      }
    </style>
  </defs>
  <path class="cls-1" d="M26.49,132.11h85.16A26.18,26.18,0,0,0,137.8,106c0-.2,0-.39,0-.59h7.89a18.28,18.28,0,0,0,4.11-36.08A26.7,26.7,0,0,0,103.5,53.84a38.79,38.79,0,0,0-44.77-5A39.24,39.24,0,0,0,45.14,61.35a22,22,0,0,0-4-.38,21.3,21.3,0,0,0-21.22,19.7,26.15,26.15,0,0,0,6.62,51.44ZM123.2,51.2a20.68,20.68,0,0,1,20.66,20.65v.05a3,3,0,0,0,2.79,3,12.22,12.22,0,0,1-1,24.41h-8.74a26.12,26.12,0,0,0-20.52-19.07,38.65,38.65,0,0,0-8.72-22A20.7,20.7,0,0,1,123.2,51.2ZM23.33,86.13a3,3,0,0,0,2.55-3.19c0-.19,0-.42,0-.7A15.24,15.24,0,0,1,45.64,67.71a3,3,0,0,0,3.52-1.36,32.87,32.87,0,0,1,61.29,16.5v.07a3,3,0,0,0,2.8,3,20.09,20.09,0,0,1-1.6,40.12H26.49a20.09,20.09,0,0,1-3.16-39.93Z"/>
</svg>
