<svg id="Layer_1" data-name="Layer 1" xmlns="http://www.w3.org/2000/svg" viewBox="0 0 166 166">
  <defs>
    <style>
      .cls-1 {
        fill: #fff;
      }
    </style>
  </defs>
  <g>
    <path class="cls-1" d="M160.18,64.14A40.23,40.23,0,0,1,110,25.2a40.87,40.87,0,0,1,1.25-10,3,3,0,0,0-4.12-3.53,43.35,43.35,0,0,0-24.4,27.37,38.48,38.48,0,0,0-7.14-.67A38.09,38.09,0,0,0,44,55.33,20.4,20.4,0,0,0,40.07,55,20.81,20.81,0,0,0,19.35,74.15a25.76,25.76,0,0,0-12.82,8,25.53,25.53,0,0,0,19.34,42.18h82.87a25.53,25.53,0,0,0,24.93-31,43,43,0,0,0,30-25.1,3,3,0,0,0-3.53-4.12ZM108.74,118.3H25.87a19.47,19.47,0,0,1-3.06-38.7,3,3,0,0,0,2.55-3.18c0-.19,0-.41,0-.68A14.75,14.75,0,0,1,40.07,61a14.55,14.55,0,0,1,4.41.67A3,3,0,0,0,48,60.32a31.9,31.9,0,0,1,59.49,16v.07a3,3,0,0,0,2.79,3,19.47,19.47,0,0,1-1.54,38.88Zm22.93-30.69a25.59,25.59,0,0,0-18.21-13.87,38.08,38.08,0,0,0-24.9-33.08A37.14,37.14,0,0,1,104.24,20,47.19,47.19,0,0,0,104,25.2a46.29,46.29,0,0,0,46.24,46.24,47.37,47.37,0,0,0,5.19-.29A36.67,36.67,0,0,1,131.67,87.61Z"/>
    <path class="cls-1" d="M27.94,154.83a3,3,0,0,0,2.68-1.61l11.24-21.31a3,3,0,0,0,.22-2.31,3,3,0,0,0-5.57-.51L25.26,150.4a3,3,0,0,0,2.68,4.43Z"/>
    <path class="cls-1" d="M45.7,154.83a3,3,0,0,0,2.67-1.61l11.25-21.31a3,3,0,1,0-5.35-2.82L43,150.4a3,3,0,0,0,2.68,4.43Z"/>
    <path class="cls-1" d="M63.46,154.83a3,3,0,0,0,2.67-1.61l11.25-21.31A3,3,0,1,0,72,129.09L60.78,150.4a3,3,0,0,0,2.68,4.43Z"/>
    <path class="cls-1" d="M81.21,154.83a3,3,0,0,0,2.68-1.61l11.25-21.31a3,3,0,1,0-5.35-2.82L78.54,150.4a3,3,0,0,0,1.26,4.08A3.06,3.06,0,0,0,81.21,154.83Z"/>
  </g>
</svg>
