<svg id="Layer_1" data-name="Layer 1" xmlns="http://www.w3.org/2000/svg" viewBox="0 0 166 166">
  <defs>
    <style>
      .cls-1 {
        fill: #fff;
      }
    </style>
  </defs>
  <g>
    <path class="cls-1" d="M123,83.83a40.81,40.81,0,1,0-40.81,40.81A40.85,40.85,0,0,0,123,83.83ZM82.15,118.59a34.76,34.76,0,1,1,34.76-34.76A34.79,34.79,0,0,1,82.15,118.59Z"/>
    <path class="cls-1" d="M79.13,5.06V26a3,3,0,0,0,6.05,0V5.06a3,3,0,1,0-6.05,0Z"/>
    <path class="cls-1" d="M24.31,26a3,3,0,0,0,0,4.28L39.09,45.05a3,3,0,0,0,2.14.88,3,3,0,0,0,2.14-5.16L28.59,26A3,3,0,0,0,24.31,26Z"/>
    <path class="cls-1" d="M3.37,86.86h20.9a3,3,0,1,0,0-6H3.37a3,3,0,0,0,0,6Z"/>
    <path class="cls-1" d="M24.31,141.68a3,3,0,0,0,4.28,0L43.37,126.9a3,3,0,1,0-4.28-4.28L24.31,137.4A3,3,0,0,0,24.31,141.68Z"/>
    <path class="cls-1" d="M79.13,141.71v20.9a3,3,0,1,0,6.05,0v-20.9a3,3,0,0,0-6.05,0Z"/>
    <path class="cls-1" d="M135.72,141.68a3,3,0,0,0,4.27,0,3,3,0,0,0,0-4.28l-14.77-14.78a3,3,0,1,0-4.28,4.28Z"/>
    <path class="cls-1" d="M164,83.83a3,3,0,0,0-3-3H140a3,3,0,1,0,0,6h20.9A3,3,0,0,0,164,83.83Z"/>
    <path class="cls-1" d="M125.22,45.05,140,30.27A3,3,0,1,0,135.72,26L120.94,40.77a3,3,0,0,0,4.28,4.28Z"/>
  </g>
</svg>
